<svg xmlns="http://www.w3.org/2000/svg" viewBox="0 0 512 512" width="512" height="512">
  <defs>
    <linearGradient id="bg" x1="0" y1="0" x2="0" y2="1">
      <stop offset="0%" stop-color="#3B82F6"/>
      <stop offset="100%" stop-color="#1E40AF"/>
    </linearGradient>
  </defs>
  <rect width="512" height="512" rx="110" fill="url(#bg)"/>
  <rect x="90" y="130" width="332" height="210" rx="30" fill="#FFFFFF"/>
  <rect x="118" y="156" width="276" height="116" rx="14" fill="#1E3A8A"/>
  <circle cx="158" cy="358" r="38" fill="#1E3A8A"/>
  <circle cx="158" cy="358" r="18" fill="#FFFFFF"/>
  <circle cx="354" cy="358" r="38" fill="#1E3A8A"/>
  <circle cx="354" cy="358" r="18" fill="#FFFFFF"/>
  <rect x="92" y="258" width="42" height="26" rx="7" fill="#FCD34D"/>
  <circle cx="372" cy="312" r="68" fill="#1E3A8A" stroke="#FFFFFF" stroke-width="10"/>
  <line x1="372" y1="274" x2="372" y2="312" stroke="#FFFFFF" stroke-width="8" stroke-linecap="round"/>
  <line x1="372" y1="312" x2="398" y2="328" stroke="#FFFFFF" stroke-width="8" stroke-linecap="round"/>
  <line x1="40" y1="222" x2="88" y2="222" stroke="#FFFFFF" stroke-width="8" stroke-linecap="round" opacity=".7"/>
  <line x1="28" y1="250" x2="88" y2="250" stroke="#FFFFFF" stroke-width="8" stroke-linecap="round" opacity=".5"/>
  <line x1="46" y1="278" x2="88" y2="278" stroke="#FFFFFF" stroke-width="8" stroke-linecap="round" opacity=".3"/>
  <rect x="0" y="408" width="512" height="104" rx="0" fill="#1E40AF" opacity=".7"/>
  <text x="256" y="458" text-anchor="middle" font-family="system-ui,sans-serif" font-weight="900" font-size="52" fill="#FFFFFF" letter-spacing="4">OPARKA</text>
  <text x="256" y="500" text-anchor="middle" font-family="system-ui,sans-serif" font-weight="700" font-size="24" fill="#93C5FD" letter-spacing="3">ROZKŁAD JAZDY</text>
</svg>
